<svg width="208" height="208" viewBox="0 0 208 208" fill="none" xmlns="http://www.w3.org/2000/svg">
<g id="fontisto:broken-link" clip-path="url(#clip0_98_540)">
<path id="Vector" d="M131.595 175.405C126.308 175.405 122.027 179.686 122.027 184.973V198.718C122.027 199.974 122.274 201.219 122.755 202.379C123.236 203.54 123.941 204.595 124.829 205.484C125.718 206.372 126.772 207.077 127.933 207.558C129.094 208.038 130.338 208.286 131.595 208.286C132.851 208.286 134.095 208.038 135.256 207.558C136.417 207.077 137.472 206.372 138.36 205.484C139.249 204.595 139.953 203.54 140.434 202.379C140.915 201.219 141.163 199.974 141.163 198.718V198.432V198.449V184.973C141.163 179.695 136.881 175.405 131.603 175.405H131.595ZM198.449 122.027H184.973C182.505 122.131 180.174 123.183 178.464 124.966C176.755 126.748 175.8 129.121 175.799 131.59C175.798 134.06 176.751 136.434 178.458 138.218C180.166 140.001 182.497 141.057 184.964 141.163H198.458C200.925 141.059 203.257 140.006 204.966 138.224C206.676 136.442 207.631 134.068 207.632 131.599C207.633 129.129 206.68 126.755 204.972 124.971C203.264 123.188 200.934 122.133 198.467 122.027H198.449ZM176.098 162.569C174.281 160.896 171.887 159.991 169.417 160.043C166.947 160.095 164.593 161.1 162.848 162.847C161.102 164.595 160.1 166.95 160.051 169.42C160.003 171.89 160.911 174.283 162.587 176.098L162.578 176.089L172.103 185.614C172.976 186.562 174.032 187.325 175.207 187.855C176.382 188.385 177.652 188.672 178.941 188.699C180.23 188.727 181.511 188.493 182.708 188.012C183.904 187.532 184.991 186.815 185.903 185.904C186.815 184.992 187.534 183.906 188.016 182.711C188.498 181.515 188.733 180.234 188.708 178.945C188.683 177.656 188.397 176.386 187.868 175.21C187.34 174.034 186.579 172.977 185.631 172.103L185.623 172.094L176.098 162.569ZM76.414 32.604C81.7006 32.604 85.982 28.3226 85.982 23.036V9.56798C85.8781 7.10079 84.8252 4.7691 83.0431 3.05972C81.261 1.35034 78.8875 0.395406 76.4181 0.394288C73.9488 0.39317 71.5744 1.34596 69.7908 3.05372C68.0071 4.76149 66.9521 7.09222 66.846 9.55931V23.0446C66.846 28.3226 71.1273 32.6126 76.4053 32.6126L76.414 32.604ZM23.036 85.9733H23.3046C25.8422 85.9733 28.2759 84.9653 30.0702 83.1709C31.8646 81.3766 32.8726 78.9429 32.8726 76.4053C32.8726 73.8677 31.8646 71.4341 30.0702 69.6397C28.2759 67.8454 25.8422 66.8373 23.3046 66.8373H23.0186H23.036H9.56798C7.10079 66.9412 4.7691 67.9941 3.05972 69.7762C1.35034 71.5583 0.395406 73.9318 0.394288 76.4012C0.39317 78.8705 1.34596 81.2449 3.05372 83.0285C4.76149 84.8122 7.09222 85.8672 9.55931 85.9733H9.57664H23.036ZM31.9106 45.4393C32.7838 46.3878 33.8397 47.1501 35.0149 47.6803C36.19 48.2105 37.4602 48.4978 38.7492 48.5248C40.0382 48.5519 41.3193 48.3182 42.5157 47.8377C43.712 47.3572 44.799 46.6399 45.7112 45.7289C46.6234 44.8178 47.3421 43.7318 47.8241 42.5361C48.3061 41.3403 48.5415 40.0595 48.5161 38.7705C48.4907 37.4815 48.205 36.2109 47.6763 35.0351C47.1476 33.8593 46.3867 32.8024 45.4393 31.928L45.4306 31.9193L35.906 22.3946C35.0328 21.4461 33.9769 20.6839 32.8017 20.1536C31.6266 19.6234 30.3564 19.3362 29.0674 19.3091C27.7784 19.2821 26.4973 19.5158 25.3009 19.9963C24.1046 20.4767 23.0177 21.194 22.1054 22.1051C21.1932 23.0161 20.4745 24.1021 19.9925 25.2979C19.5105 26.4936 19.2752 27.7745 19.3006 29.0635C19.3259 30.3525 19.6116 31.623 20.1403 32.7989C20.669 33.9747 21.4299 35.0316 22.3773 35.906L22.386 35.9146L31.9106 45.4393ZM124.297 151.355C125.97 149.537 126.876 147.143 126.824 144.674C126.772 142.204 125.767 139.85 124.019 138.104C122.271 136.359 119.916 135.357 117.446 135.308C114.977 135.259 112.584 136.168 110.769 137.843L110.777 137.835L83.7373 164.875C78.2863 169.895 71.1048 172.613 63.6957 172.459C56.2866 172.305 49.2242 169.291 43.9863 164.049C38.7484 158.807 35.741 151.742 35.5934 144.332C35.4459 136.923 38.1696 129.744 43.1946 124.297L43.1773 124.315L70.2173 97.2747C71.1658 96.4015 71.9281 95.3456 72.4583 94.1704C72.9885 92.9952 73.2758 91.725 73.3028 90.4361C73.3299 89.1471 73.0962 87.866 72.6157 86.6696C72.1352 85.4733 71.4179 84.3863 70.5069 83.4741C69.5958 82.5619 68.5098 81.8432 67.3141 81.3612C66.1183 80.8792 64.8375 80.6438 63.5485 80.6692C62.2595 80.6946 60.9889 80.9803 59.8131 81.509C58.6372 82.0377 57.5804 82.7986 56.706 83.746L56.6973 83.7546L29.6573 110.795C22.9721 117.484 18.4196 126.005 16.5749 135.28C14.7301 144.556 15.676 154.17 19.293 162.909C22.91 171.647 29.0358 179.117 36.8965 184.375C44.7572 189.634 54 192.444 63.4573 192.452H63.57C69.832 192.459 76.0334 191.226 81.8157 188.822C87.5979 186.418 92.8463 182.891 97.2573 178.447L124.297 151.355ZM178.403 29.5706C173.992 25.1259 168.744 21.5996 162.962 19.1956C157.179 16.7917 150.978 15.5578 144.716 15.5653H144.603H144.612H144.499C138.237 15.5578 132.036 16.7917 126.254 19.1956C120.471 21.5996 115.223 25.1259 110.812 29.5706L83.772 56.6106C82.8235 57.4838 82.0612 58.5397 81.531 59.7149C81.0008 60.8901 80.7135 62.1603 80.6864 63.4492C80.6594 64.7382 80.8931 66.0193 81.3736 67.2157C81.8541 68.412 82.5714 69.499 83.4824 70.4112C84.3935 71.3234 85.4795 72.0421 86.6752 72.5241C87.871 73.0061 89.1518 73.2415 90.4408 73.2161C91.7298 73.1907 93.0004 72.9051 94.1762 72.3763C95.352 71.8476 96.4089 71.0867 97.2833 70.1393L97.292 70.1307L124.332 43.0906C126.959 40.2705 130.127 38.0082 133.647 36.4387C137.167 34.8693 140.967 34.0248 144.821 33.9556C148.674 33.8864 152.502 34.594 156.076 36.0362C159.65 37.4783 162.897 39.6254 165.624 42.3495C168.35 45.0736 170.5 48.3189 171.945 51.8918C173.391 55.4647 174.101 59.292 174.035 63.1456C173.97 66.9991 173.128 70.7999 171.562 74.3214C169.995 77.8428 167.736 81.0127 164.918 83.642L164.901 83.6593L137.861 110.699C136.912 111.573 136.15 112.628 135.62 113.804C135.089 114.979 134.802 116.249 134.775 117.538C134.748 118.827 134.982 120.108 135.462 121.304C135.943 122.501 136.66 123.588 137.571 124.5C138.482 125.412 139.568 126.131 140.764 126.613C141.96 127.095 143.24 127.33 144.529 127.305C145.818 127.279 147.089 126.994 148.265 126.465C149.441 125.936 150.498 125.175 151.372 124.228L151.381 124.219L178.421 97.1793C187.053 88.5213 192.383 76.57 192.383 63.3793C192.383 50.1886 187.044 38.2373 178.412 29.5793L178.403 29.5706Z" fill="#E3E3E3" fill-opacity="0.8"/>
</g>
<defs>
<clipPath id="clip0_98_540">
<rect width="208" height="208" fill="white"/>
</clipPath>
</defs>
</svg>
