<svg width="33" height="33" viewBox="0 0 33 33" fill="none" xmlns="http://www.w3.org/2000/svg">
<g id="game-icons:holy-grail">
<path id="Vector" d="M3.48853 6.58634C2.48151 11.4129 4.80466 14.5527 7.62158 16.2905C5.49057 15.7872 3.42878 15.0349 1.28906 13.9158C2.93262 18.9102 6.52034 20.0915 9.66191 19.7649C7.92599 20.6835 6.09172 21.3956 4.25191 21.8777C8.76621 24.6822 12.0499 22.9093 13.8554 20.4417C11.9098 19.2923 10.4593 16.9745 9.79281 14.1031C7.3436 11.8592 5.18996 9.26836 3.48846 6.58627L3.48853 6.58634ZM29.4591 6.58634C27.7578 9.2681 25.6038 11.8577 23.1548 14.1011C22.4885 16.9734 21.0381 19.2922 19.0923 20.4418C20.8976 22.9094 24.1813 24.6823 28.6958 21.8778C26.8562 21.3957 25.0234 20.6835 23.2877 19.765C26.4289 20.0908 30.0153 18.9091 31.6585 13.9159C29.5189 15.0349 27.457 15.7873 25.326 16.2906C28.1429 14.5527 30.4662 11.413 29.4591 6.58634H29.4591ZM16.4738 8.27417C14.9553 8.27417 13.5779 8.50466 12.5281 8.90865C12.0031 9.11058 11.5584 9.35376 11.2108 9.66984C10.8633 9.98611 10.5985 10.413 10.5985 10.9046C10.5985 10.9619 10.6017 11.0183 10.6086 11.0738C10.7775 15.2601 12.6763 18.6504 14.945 19.6581L15.3923 19.8576L15.2895 20.3349C14.7323 22.9312 13.9634 24.4348 12.6508 25.2997C11.9294 25.7753 11.7366 26.1515 11.7243 26.2746C11.7121 26.3977 11.7737 26.5453 12.1655 26.7842C12.9491 27.2618 14.7388 27.6322 16.4738 27.6322C18.2058 27.6322 19.9064 27.2491 20.643 26.768C21.0115 26.5276 21.0821 26.3671 21.0701 26.2182C21.0581 26.0692 20.8808 25.7069 20.2262 25.2373C18.9805 24.3438 18.207 22.9101 17.6582 20.3348L17.5554 19.8575L18.0025 19.6581C20.2713 18.6504 22.1702 15.2601 22.3389 11.0737H22.337C22.3438 11.0183 22.3471 10.9619 22.3471 10.9045C22.3471 10.413 22.0843 9.98605 21.7367 9.66984C21.3891 9.3537 20.9424 9.11058 20.4173 8.90865C19.3675 8.50453 17.9922 8.27411 16.4737 8.27411L16.4738 8.27417ZM16.4738 9.47867C17.8671 9.47867 19.1263 9.70232 19.9845 10.0325C20.4136 10.1976 20.7391 10.3911 20.9251 10.5603C21.1111 10.7294 21.1426 10.8361 21.1426 10.9047C21.1426 10.9732 21.1112 11.0799 20.9252 11.2491C20.7392 11.4183 20.4137 11.6117 19.9845 11.7769C19.1263 12.1071 17.8671 12.3308 16.4739 12.3308C15.0807 12.3308 13.8195 12.1071 12.9612 11.7769C12.5321 11.6117 12.2066 11.4183 12.0206 11.249C11.8346 11.0799 11.803 10.9731 11.803 10.9046C11.803 10.8361 11.8346 10.7294 12.0206 10.5603C12.2066 10.3911 12.5321 10.1976 12.9612 10.0325C13.8195 9.70232 15.0807 9.47861 16.4739 9.47861L16.4738 9.47867Z" fill="#E3E3E3"/>
</g>
</svg>
