<svg width="36" height="36" viewBox="0 0 36 36" fill="none" xmlns="http://www.w3.org/2000/svg">
<g id="eos-icons:subscription-management">
<path id="Vector" d="M9 28.5H16.5V34.5L12.75 32.25L9 34.5V28.5ZM30 1.5H18V34.5L21.75 32.25L25.5 34.5V31.5H30C30.7956 31.5 31.5587 31.1839 32.1213 30.6213C32.6839 30.0587 33 29.2956 33 28.5V4.5C33 3.70435 32.6839 2.94129 32.1213 2.37868C31.5587 1.81607 30.7956 1.5 30 1.5ZM21 7.5H24V10.5H21V7.5ZM21 15H24V18H21V15ZM21 22.5H24V25.5H21V22.5ZM6 1.5C5.20508 1.50237 4.4434 1.81921 3.8813 2.3813C3.31921 2.9434 3.00237 3.70508 3 4.5V28.5C3.00237 29.2949 3.31921 30.0566 3.8813 30.6187C4.4434 31.1808 5.20508 31.4976 6 31.5V4.5H16.5V1.5H6Z" fill="#8685EF"/>
<path id="Vector_2" d="M9 7.5H12V10.5H9V7.5ZM9 15H12V18H9V15ZM9 22.5H12V25.5H9V22.5Z" fill="#8685EF"/>
</g>
</svg>
