<svg width="33" height="33" viewBox="0 0 33 33" fill="none" xmlns="http://www.w3.org/2000/svg">
<g id="bx:medal">
<path id="Vector" d="M16.5 30.25C21.8061 30.25 26.125 25.9311 26.125 20.625C26.125 15.3189 21.8061 11 16.5 11C11.1925 11 6.875 15.3189 6.875 20.625C6.875 25.9311 11.1925 30.25 16.5 30.25ZM16.5 13.75C20.2909 13.75 23.375 16.8341 23.375 20.625C23.375 24.4159 20.2909 27.5 16.5 27.5C12.7091 27.5 9.625 24.4159 9.625 20.625C9.625 16.8341 12.7091 13.75 16.5 13.75ZM15.125 2.75H9.625V10.3373C11.2704 9.23618 13.1571 8.54803 15.125 8.33113V2.75ZM23.375 2.75H17.875V8.33113C19.8429 8.54803 21.7296 9.23618 23.375 10.3373V2.75Z" fill="#E3E3E3"/>
<path id="Vector_2" d="M13.776 21.7401L13.1325 25.4884L16.4999 23.7188L19.8673 25.4884L19.2238 21.7401L21.949 19.0836L18.1843 18.5364L16.4999 15.125L14.8155 18.5364L11.0508 19.0836L13.776 21.7401Z" fill="#E3E3E3"/>
</g>
</svg>
