<svg width="14" height="14" viewBox="0 0 14 14" fill="none" xmlns="http://www.w3.org/2000/svg">
<g id="akar-icons:trash-can" clip-path="url(#clip0_93_880)">
<path id="Vector" d="M1.16675 3.49999H12.8334M5.83341 6.41666V9.33332M8.16675 6.41666V9.33332M2.33341 3.49999H11.6667L10.7451 11.795C10.7135 12.0805 10.5777 12.3442 10.3637 12.5358C10.1498 12.7274 9.87263 12.8333 9.58541 12.8333H4.41475C4.12754 12.8333 3.85041 12.7274 3.63643 12.5358C3.42246 12.3442 3.28667 12.0805 3.25508 11.795L2.33341 3.49999ZM4.28466 1.83574C4.37902 1.63564 4.52833 1.46649 4.71517 1.34802C4.90201 1.22955 5.11868 1.16665 5.33991 1.16666H8.66025C8.88158 1.16654 9.09838 1.22939 9.28533 1.34787C9.47229 1.46634 9.62168 1.63555 9.71608 1.83574L10.5001 3.49999H3.50008L4.28466 1.83574V1.83574Z" stroke="#E3E3E3" stroke-width="1.91667" stroke-linecap="round" stroke-linejoin="round"/>
</g>
<defs>
<clipPath id="clip0_93_880">
<rect width="14" height="14" fill="white"/>
</clipPath>
</defs>
</svg>
