<svg width="21" height="21" viewBox="0 0 21 21" fill="none" xmlns="http://www.w3.org/2000/svg">
<g id="ant-design:arrow-down-outlined">
<path id="Vector" d="M17.6777 9.54228H16.0166C15.9223 9.54228 15.832 9.5833 15.7685 9.65508L11.2793 14.8292V3.28125C11.2793 3.19102 11.2055 3.11719 11.1152 3.11719H9.88476C9.79453 3.11719 9.7207 3.19102 9.7207 3.28125V14.8292L5.23154 9.65508C5.17002 9.5833 5.07978 9.54228 4.9834 9.54228H3.32226C3.18281 9.54228 3.10693 9.7084 3.19922 9.81299L10.0058 17.6572C10.0673 17.7282 10.1434 17.7851 10.2288 17.8241C10.3143 17.8632 10.4071 17.8834 10.501 17.8834C10.595 17.8834 10.6878 17.8632 10.7732 17.8241C10.8587 17.7851 10.9348 17.7282 10.9963 17.6572L17.8008 9.81299C17.8931 9.70635 17.8172 9.54228 17.6777 9.54228Z" fill="#E3E3E3"/>
</g>
</svg>
