<svg width="27" height="27" viewBox="0 0 27 27" fill="none" xmlns="http://www.w3.org/2000/svg">
<g id="ant-design:share-alt-outlined">
<path id="Vector" d="M19.8281 17.5078C19.0767 17.5078 18.3832 17.7715 17.84 18.2118L12.3768 14.2594C12.4682 13.7573 12.4682 13.2427 12.3768 12.7406L17.84 8.78818C18.3832 9.22852 19.0767 9.49219 19.8281 9.49219C21.5736 9.49219 22.9922 8.07363 22.9922 6.32812C22.9922 4.58262 21.5736 3.16406 19.8281 3.16406C18.0826 3.16406 16.6641 4.58262 16.6641 6.32812C16.6641 6.63398 16.7063 6.92666 16.788 7.20615L11.5989 10.9635C10.829 9.94307 9.60557 9.28125 8.22656 9.28125C5.8957 9.28125 4.00781 11.1691 4.00781 13.5C4.00781 15.8309 5.8957 17.7188 8.22656 17.7188C9.60557 17.7188 10.829 17.0569 11.5989 16.0365L16.788 19.7938C16.7063 20.0733 16.6641 20.3687 16.6641 20.6719C16.6641 22.4174 18.0826 23.8359 19.8281 23.8359C21.5736 23.8359 22.9922 22.4174 22.9922 20.6719C22.9922 18.9264 21.5736 17.5078 19.8281 17.5078ZM19.8281 4.95703C20.5849 4.95703 21.1992 5.57139 21.1992 6.32812C21.1992 7.08486 20.5849 7.69922 19.8281 7.69922C19.0714 7.69922 18.457 7.08486 18.457 6.32812C18.457 5.57139 19.0714 4.95703 19.8281 4.95703ZM8.22656 15.8203C6.94775 15.8203 5.90625 14.7788 5.90625 13.5C5.90625 12.2212 6.94775 11.1797 8.22656 11.1797C9.50537 11.1797 10.5469 12.2212 10.5469 13.5C10.5469 14.7788 9.50537 15.8203 8.22656 15.8203ZM19.8281 22.043C19.0714 22.043 18.457 21.4286 18.457 20.6719C18.457 19.9151 19.0714 19.3008 19.8281 19.3008C20.5849 19.3008 21.1992 19.9151 21.1992 20.6719C21.1992 21.4286 20.5849 22.043 19.8281 22.043Z" fill="#E3E3E3"/>
</g>
</svg>
